<?xml version="1.0" encoding="UTF-8" standalone="no"?>
<svg
   xmlns:dc="http://purl.org/dc/elements/1.1/"
   xmlns:cc="http://creativecommons.org/ns#"
   xmlns:rdf="http://www.w3.org/1999/02/22-rdf-syntax-ns#"
   xmlns:svg="http://www.w3.org/2000/svg"
   xmlns="http://www.w3.org/2000/svg"
   xmlns:sodipodi="http://sodipodi.sourceforge.net/DTD/sodipodi-0.dtd"
   xmlns:inkscape="http://www.inkscape.org/namespaces/inkscape"
   sodipodi:docname="social.svg"
   inkscape:version="0.92.5 (2060ec1f9f, 2020-04-08)"
   id="svg8"
   version="1.1"
   viewBox="0 0 338.66665 169.33333"
   height="640"
   width="1280"
   inkscape:export-filename="/home/tpl/Desktop/game-ten-points/board.png"
   inkscape:export-xdpi="96"
   inkscape:export-ydpi="96">
  <defs
     id="defs2">
    <inkscape:path-effect
       effect="spiro"
       id="path-effect880"
       is_visible="true" />
  </defs>
  <sodipodi:namedview
     inkscape:window-maximized="1"
     inkscape:window-y="27"
     inkscape:window-x="68"
     inkscape:window-height="836"
     inkscape:window-width="1532"
     showgrid="true"
     inkscape:document-rotation="0"
     inkscape:current-layer="layer1"
     inkscape:document-units="mm"
     inkscape:cy="184.53633"
     inkscape:cx="614.84552"
     inkscape:zoom="0.49497475"
     inkscape:pageshadow="2"
     inkscape:pageopacity="1"
     borderopacity="1.0"
     bordercolor="#666666"
     pagecolor="#ffffff"
     id="base"
     inkscape:pagecheckerboard="false"
     fit-margin-top="0"
     fit-margin-left="0"
     fit-margin-right="0"
     fit-margin-bottom="0"
     units="px">
    <inkscape:grid
       type="xygrid"
       id="grid812"
       originx="-125.41249"
       originy="-137.58334" />
  </sodipodi:namedview>
  <metadata
     id="metadata5">
    <rdf:RDF>
      <cc:Work
         rdf:about="">
        <dc:format>image/svg+xml</dc:format>
        <dc:type
           rdf:resource="http://purl.org/dc/dcmitype/StillImage" />
        <dc:title></dc:title>
      </cc:Work>
    </rdf:RDF>
  </metadata>
  <g
     id="layer1"
     inkscape:groupmode="layer"
     inkscape:label="Layer 1"
     transform="translate(-125.41252,9.9166788)">
    <g
       id="g872"
       transform="translate(5.442038,4.9708515)">
      <rect
         y="-14.88753"
         x="119.97048"
         height="169.33333"
         width="338.66666"
         id="rect843"
         style="fill:#e5e5e5;fill-opacity:1;stroke:none;stroke-width:2;stroke-linecap:round;stroke-linejoin:bevel;stroke-miterlimit:4;stroke-dasharray:none;stroke-opacity:1" />
      <g
         transform="translate(106.63974,-52.520316)"
         id="g1006">
        <g
           id="g899">
          <path
             transform="matrix(0,-1,-1,0,291.40601,291.40601)"
             sodipodi:nodetypes="cccc"
             inkscape:original-d="m 137.281,148.53101 26.45834,-26.45833 0.30233,37.34399 36.73933,-32.05233"
             inkscape:path-effect="#path-effect880"
             inkscape:connector-curvature="0"
             id="path878"
             d="m 137.281,148.53101 26.45834,-26.45833 0.30233,37.34399 36.73933,-32.05233"
             style="fill:none;fill-opacity:1;stroke:#393939;stroke-width:2;stroke-linecap:round;stroke-linejoin:bevel;stroke-miterlimit:4;stroke-dasharray:none;stroke-opacity:1" />
          <circle
             transform="matrix(0,-1,-1,0,0,0)"
             style="fill:#ff0012;fill-opacity:1;stroke-width:0.26458332"
             id="circle4519"
             cx="-156.99771"
             cy="-139.32204"
             r="2.6458333" />
          <circle
             transform="matrix(0,-1,-1,0,0,0)"
             r="2.6458333"
             cy="-173.11311"
             cx="-126.15488"
             id="circle4521"
             style="fill:#ff0012;fill-opacity:1;stroke-width:0.26458332" />
          <circle
             transform="matrix(0,-1,-1,0,0,0)"
             style="fill:#ff0012;fill-opacity:1;stroke-width:0.26458332"
             id="circle4523"
             cx="-129.0274"
             cy="-127.98273"
             r="2.6458333" />
          <circle
             transform="matrix(0,-1,-1,0,0,0)"
             style="fill:#ff0012;fill-opacity:1;stroke-width:0.26458332"
             id="circle4527"
             cx="-87.601189"
             cy="-167.21669"
             r="2.6458333" />
        </g>
        <g
           aria-label="The Faster Route Game"
           transform="matrix(0.29208911,0,0,0.29208911,113.37505,81.669245)"
           style="font-style:normal;font-weight:normal;font-size:40px;line-height:1.25;font-family:sans-serif;letter-spacing:0px;word-spacing:0px;fill:#393939;fill-opacity:1;stroke:none"
           id="flowRoot901">
          <path
             inkscape:connector-curvature="0"
             d="M 250.61849,63.752745 H 240.55182 V 24.552746 h -12.93333 v -8.4 h 35.93333 v 8.4 h -12.93333 z"
             style="font-style:normal;font-variant:normal;font-weight:bold;font-stretch:normal;font-size:66.66666412px;line-height:1;font-family:'Noto Sans';-inkscape-font-specification:'Noto Sans Bold';fill:#393939;fill-opacity:1"
             id="path944" />
          <path
             inkscape:connector-curvature="0"
             d="m 280.01839,13.08608 v 10.333333 q 0,2.666666 -0.2,5.133333 -0.13333,2.466667 -0.26666,3.466666 h 0.53333 q 1.73333,-2.799999 4.46667,-4.066666 2.73333,-1.266667 6.06666,-1.266667 5.93333,0 9.46667,3.2 3.6,3.133333 3.6,10.133333 v 23.733333 h -9.93334 V 42.486079 q 0,-7.866667 -5.86666,-7.866667 -4.46667,0 -6.2,3.133334 -1.66667,3.066666 -1.66667,8.866666 v 17.133333 h -9.93333 V 13.08608 Z"
             style="font-style:normal;font-variant:normal;font-weight:bold;font-stretch:normal;font-size:66.66666412px;line-height:1;font-family:'Noto Sans';-inkscape-font-specification:'Noto Sans Bold';fill:#393939;fill-opacity:1"
             id="path946" />
          <path
             inkscape:connector-curvature="0"
             d="m 328.88503,26.686079 q 7.53333,0 11.93333,4.333334 4.4,4.266666 4.4,12.199999 v 4.8 h -23.46667 q 0.13334,4.2 2.46667,6.6 2.4,2.4 6.6,2.4 3.53333,0 6.4,-0.666667 2.86667,-0.733333 5.93333,-2.2 v 7.666666 q -2.66666,1.333334 -5.66666,1.933334 -2.93334,0.666666 -7.13334,0.666666 -5.46666,0 -9.66666,-2 -4.2,-2.066666 -6.6,-6.199999 -2.4,-4.133334 -2.4,-10.4 0,-6.4 2.13333,-10.6 2.2,-4.266666 6.06667,-6.399999 3.86666,-2.133334 9,-2.133334 z m 0.0667,7.066667 q -2.86666,0 -4.8,1.866666 -1.86666,1.866667 -2.2,5.8 h 13.93334 q -0.0667,-3.333333 -1.73334,-5.466666 -1.66666,-2.2 -5.2,-2.2 z"
             style="font-style:normal;font-variant:normal;font-weight:bold;font-stretch:normal;font-size:66.66666412px;line-height:1;font-family:'Noto Sans';-inkscape-font-specification:'Noto Sans Bold';fill:#393939;fill-opacity:1"
             id="path948" />
          <path
             inkscape:connector-curvature="0"
             d="m 242.21849,130.68713 h -9.93333 V 83.087134 h 27.26666 V 91.3538 h -17.33333 v 12.26667 h 16.13333 v 8.26666 h -16.13333 z"
             style="font-style:normal;font-variant:normal;font-weight:bold;font-stretch:normal;font-size:66.66666412px;line-height:1;font-family:'Noto Sans';-inkscape-font-specification:'Noto Sans Bold';fill:#393939;fill-opacity:1"
             id="path950" />
          <path
             inkscape:connector-curvature="0"
             d="m 283.01847,93.5538 q 7.33334,0 11.2,3.2 3.93333,3.133333 3.93333,9.66667 v 24.26666 h -6.93333 l -1.93333,-4.93333 h -0.26667 q -2.33333,2.93333 -4.93333,4.26667 -2.6,1.33333 -7.13333,1.33333 -4.86667,0 -8.06667,-2.8 -3.2,-2.86667 -3.2,-8.73333 0,-5.8 4.06667,-8.53334 4.06666,-2.8 12.2,-3.06666 l 6.33333,-0.2 v -1.6 q 0,-2.86667 -1.53333,-4.2 -1.46667,-1.33334 -4.13334,-1.33334 -2.66666,0 -5.2,0.8 -2.53333,0.73334 -5.06666,1.86667 l -3.26667,-6.733334 q 2.93333,-1.533333 6.46667,-2.399999 3.6,-0.866667 7.46666,-0.866667 z m 5.26667,20.26667 -3.86667,0.13333 q -4.8,0.13333 -6.66666,1.73333 -1.86667,1.6 -1.86667,4.2 0,2.26667 1.33333,3.26667 1.33334,0.93333 3.46667,0.93333 3.2,0 5.4,-1.86666 2.2,-1.93334 2.2,-5.4 z"
             style="font-style:normal;font-variant:normal;font-weight:bold;font-stretch:normal;font-size:66.66666412px;line-height:1;font-family:'Noto Sans';-inkscape-font-specification:'Noto Sans Bold';fill:#393939;fill-opacity:1"
             id="path952" />
          <path
             inkscape:connector-curvature="0"
             d="m 333.75169,119.88713 q 0,5.53334 -3.93334,8.53334 -3.86666,2.93333 -11.6,2.93333 -3.8,0 -6.53333,-0.53333 -2.73333,-0.46667 -5.46667,-1.6 v -8.2 q 2.93334,1.33333 6.33334,2.2 3.4,0.86666 6,0.86666 2.93333,0 4.13333,-0.86666 1.26667,-0.86667 1.26667,-2.26667 0,-0.93333 -0.53334,-1.66667 -0.46666,-0.73333 -2.13333,-1.66666 -1.66667,-0.93334 -5.2,-2.4 -3.4,-1.46667 -5.6,-2.86667 -2.2,-1.46667 -3.26667,-3.46667 -1.06666,-2.06666 -1.06666,-5.13333 0,-5.066667 3.93333,-7.6 3.93333,-2.533333 10.46667,-2.533333 3.4,0 6.46666,0.666666 3.06667,0.666667 6.33334,2.2 l -3,7.133337 q -2.66667,-1.13334 -5.06667,-1.86667 -2.4,-0.8 -4.86667,-0.8 -4.4,0 -4.4,2.4 0,0.86667 0.53334,1.6 0.6,0.66667 2.2,1.46667 1.66666,0.8 4.86666,2.13333 3.13334,1.26667 5.4,2.66667 2.26667,1.33333 3.46667,3.4 1.26667,2 1.26667,5.26666 z"
             style="font-style:normal;font-variant:normal;font-weight:bold;font-stretch:normal;font-size:66.66666412px;line-height:1;font-family:'Noto Sans';-inkscape-font-specification:'Noto Sans Bold';fill:#393939;fill-opacity:1"
             id="path954" />
          <path
             inkscape:connector-curvature="0"
             d="m 356.81834,123.42047 q 1.66666,0 3.2,-0.33334 1.53333,-0.33333 3.06666,-0.8 v 7.4 q -1.6,0.66667 -4,1.13334 -2.33333,0.53333 -5.13333,0.53333 -3.26667,0 -5.86667,-1.06667 -2.53333,-1.06666 -4.06666,-3.66666 -1.46667,-2.66667 -1.46667,-7.33334 V 101.7538 h -4.73333 v -4.2 l 5.46666,-3.333333 2.86667,-7.666667 h 6.33333 v 7.733333 h 10.2 v 7.466667 h -10.2 v 17.53333 q 0,2.06667 1.2,3.13334 1.2,1 3.13334,1 z"
             style="font-style:normal;font-variant:normal;font-weight:bold;font-stretch:normal;font-size:66.66666412px;line-height:1;font-family:'Noto Sans';-inkscape-font-specification:'Noto Sans Bold';fill:#393939;fill-opacity:1"
             id="path956" />
          <path
             inkscape:connector-curvature="0"
             d="m 385.4182,93.620467 q 7.53333,0 11.93333,4.333333 4.4,4.26667 4.4,12.2 v 4.8 h -23.46666 q 0.13333,4.2 2.46666,6.6 2.4,2.4 6.6,2.4 3.53334,0 6.4,-0.66667 2.86667,-0.73333 5.93334,-2.2 v 7.66667 q -2.66667,1.33333 -5.66667,1.93333 -2.93333,0.66667 -7.13333,0.66667 -5.46667,0 -9.66667,-2 -4.2,-2.06667 -6.6,-6.2 -2.4,-4.13333 -2.4,-10.4 0,-6.4 2.13333,-10.6 2.2,-4.266667 6.06667,-6.4 3.86667,-2.133333 9,-2.133333 z m 0.0667,7.066663 q -2.86667,0 -4.8,1.86667 -1.86667,1.86667 -2.2,5.8 h 13.93333 q -0.0667,-3.33333 -1.73333,-5.46667 -1.66667,-2.2 -5.2,-2.2 z"
             style="font-style:normal;font-variant:normal;font-weight:bold;font-stretch:normal;font-size:66.66666412px;line-height:1;font-family:'Noto Sans';-inkscape-font-specification:'Noto Sans Bold';fill:#393939;fill-opacity:1"
             id="path958" />
          <path
             inkscape:connector-curvature="0"
             d="m 430.15151,93.620467 q 0.73333,0 1.73333,0.06667 1,0.06667 1.6,0.2 l -0.73333,9.333333 q -0.46667,-0.13334 -1.4,-0.2 -0.86666,-0.13334 -1.53333,-0.13334 -2.53333,0 -4.86667,0.93334 -2.33333,0.86666 -3.8,2.86666 -1.4,2 -1.4,5.46667 v 18.53333 h -9.93333 V 94.287133 h 7.53333 l 1.46667,6.133337 h 0.46667 q 1.6,-2.800004 4.4,-4.800004 2.8,-1.999999 6.46666,-1.999999 z"
             style="font-style:normal;font-variant:normal;font-weight:bold;font-stretch:normal;font-size:66.66666412px;line-height:1;font-family:'Noto Sans';-inkscape-font-specification:'Noto Sans Bold';fill:#393939;fill-opacity:1"
             id="path960" />
          <path
             inkscape:connector-curvature="0"
             d="m 246.15182,150.02152 q 9.73334,0 14.33333,3.53333 4.66667,3.53334 4.66667,10.73334 0,3.26666 -1.26667,5.73333 -1.2,2.4 -3.26666,4.13333 -2,1.66667 -4.33333,2.73334 l 13.99999,20.73333 h -11.2 l -11.33333,-18.26667 h -5.4 v 18.26667 h -10.06666 v -47.6 z m -0.73333,8.26667 h -3.06667 v 12.86666 h 3.26667 q 5,0 7.13333,-1.66666 2.2,-1.66667 2.2,-4.93334 0,-3.4 -2.33333,-4.8 -2.26667,-1.46666 -7.2,-1.46666 z"
             style="font-style:normal;font-variant:normal;font-weight:bold;font-stretch:normal;font-size:66.66666412px;line-height:1;font-family:'Noto Sans';-inkscape-font-specification:'Noto Sans Bold';fill:#393939;fill-opacity:1"
             id="path962" />
          <path
             inkscape:connector-curvature="0"
             d="m 308.55181,179.35485 q 0,9.06667 -4.8,14 -4.73333,4.93334 -12.93333,4.93334 -5.06667,0 -9.06667,-2.2 -3.93333,-2.2 -6.2,-6.4 -2.26667,-4.26667 -2.26667,-10.33334 0,-9.06666 4.73334,-13.93333 4.73333,-4.86667 13,-4.86667 5.13333,0 9.06666,2.2 3.93334,2.2 6.2,6.4 2.26667,4.13334 2.26667,10.2 z m -25.13333,0 q 0,5.4 1.73333,8.2 1.8,2.73334 5.8,2.73334 3.93333,0 5.66667,-2.73334 1.8,-2.8 1.8,-8.2 0,-5.4 -1.8,-8.06666 -1.73334,-2.73334 -5.73334,-2.73334 -3.93333,0 -5.73333,2.73334 -1.73333,2.66666 -1.73333,8.06666 z"
             style="font-style:normal;font-variant:normal;font-weight:bold;font-stretch:normal;font-size:66.66666412px;line-height:1;font-family:'Noto Sans';-inkscape-font-specification:'Noto Sans Bold';fill:#393939;fill-opacity:1"
             id="path964" />
          <path
             inkscape:connector-curvature="0"
             d="m 350.15177,161.22152 v 36.4 h -7.6 l -1.33333,-4.66667 h -0.53333 q -1.73334,2.8 -4.8,4.06667 -3,1.26667 -6.4,1.26667 -5.86667,0 -9.4,-3.13334 -3.53334,-3.2 -3.53334,-10.2 v -23.73333 h 9.93334 v 21.26667 q 0,3.86666 1.4,5.86666 1.4,2 4.46666,2 4.53334,0 6.2,-3.06666 1.66667,-3.13334 1.66667,-8.93334 v -17.13333 z"
             style="font-style:normal;font-variant:normal;font-weight:bold;font-stretch:normal;font-size:66.66666412px;line-height:1;font-family:'Noto Sans';-inkscape-font-specification:'Noto Sans Bold';fill:#393939;fill-opacity:1"
             id="path966" />
          <path
             inkscape:connector-curvature="0"
             d="m 375.88508,190.35485 q 1.66666,0 3.2,-0.33333 1.53333,-0.33333 3.06666,-0.8 v 7.4 q -1.6,0.66667 -4,1.13333 -2.33333,0.53334 -5.13333,0.53334 -3.26666,0 -5.86666,-1.06667 -2.53334,-1.06667 -4.06667,-3.66667 -1.46667,-2.66666 -1.46667,-7.33333 v -17.53333 h -4.73333 v -4.2 l 5.46667,-3.33334 2.86666,-7.66666 h 6.33333 v 7.73333 h 10.2 v 7.46667 h -10.2 v 17.53333 q 0,2.06667 1.2,3.13333 1.2,1 3.13334,1 z"
             style="font-style:normal;font-variant:normal;font-weight:bold;font-stretch:normal;font-size:66.66666412px;line-height:1;font-family:'Noto Sans';-inkscape-font-specification:'Noto Sans Bold';fill:#393939;fill-opacity:1"
             id="path968" />
          <path
             inkscape:connector-curvature="0"
             d="m 404.48496,160.55485 q 7.53333,0 11.93333,4.33334 4.4,4.26666 4.4,12.2 v 4.8 h -23.46667 q 0.13334,4.2 2.46667,6.6 2.4,2.4 6.6,2.4 3.53333,0 6.4,-0.66667 2.86667,-0.73333 5.93333,-2.2 v 7.66667 q -2.66666,1.33333 -5.66666,1.93333 -2.93334,0.66667 -7.13334,0.66667 -5.46666,0 -9.66666,-2 -4.2,-2.06667 -6.6,-6.2 -2.4,-4.13334 -2.4,-10.4 0,-6.4 2.13333,-10.6 2.2,-4.26667 6.06667,-6.4 3.86666,-2.13334 9,-2.13334 z m 0.0667,7.06667 q -2.86666,0 -4.8,1.86667 -1.86666,1.86666 -2.2,5.8 H 411.485 q -0.0667,-3.33334 -1.73334,-5.46667 -1.66666,-2.2 -5.2,-2.2 z"
             style="font-style:normal;font-variant:normal;font-weight:bold;font-stretch:normal;font-size:66.66666412px;line-height:1;font-family:'Noto Sans';-inkscape-font-specification:'Noto Sans Bold';fill:#393939;fill-opacity:1"
             id="path970" />
          <path
             inkscape:connector-curvature="0"
             d="m 250.35182,237.82257 h 18.86667 v 24.66667 q -3.73334,1.26667 -7.8,2 -4,0.73333 -9.13333,0.73333 -10.66667,0 -16.4,-6.26666 -5.73334,-6.26667 -5.73334,-18.26667 0,-7.46667 2.86667,-12.93333 2.93333,-5.46667 8.46667,-8.46667 5.53333,-3 13.53333,-3 3.8,0 7.46666,0.8 3.66667,0.8 6.66667,2.13333 l -3.33333,8.06667 q -2.2,-1.13333 -5,-1.86667 -2.8,-0.73333 -5.86667,-0.73333 -4.4,0 -7.66666,2 -3.2,2 -5,5.66667 -1.73334,3.6 -1.73334,8.53333 0,4.66667 1.26667,8.26667 1.26667,3.6 4,5.66666 2.73333,2 7.13333,2 2.13334,0 3.6,-0.2 1.53334,-0.2 2.8,-0.46666 v -9.93334 h -9 z"
             style="font-style:normal;font-variant:normal;font-weight:bold;font-stretch:normal;font-size:66.66666412px;line-height:1;font-family:'Noto Sans';-inkscape-font-specification:'Noto Sans Bold';fill:#393939;fill-opacity:1"
             id="path972" />
          <path
             inkscape:connector-curvature="0"
             d="m 294.68509,227.42257 q 7.33333,0 11.2,3.2 3.93333,3.13334 3.93333,9.66667 v 24.26667 h -6.93333 l -1.93333,-4.93334 h -0.26667 q -2.33333,2.93334 -4.93333,4.26667 -2.6,1.33333 -7.13334,1.33333 -4.86666,0 -8.06666,-2.8 -3.2,-2.86666 -3.2,-8.73333 0,-5.8 4.06666,-8.53333 4.06667,-2.8 12.2,-3.06667 l 6.33334,-0.2 v -1.6 q 0,-2.86667 -1.53334,-4.2 -1.46666,-1.33333 -4.13333,-1.33333 -2.66667,0 -5.2,0.8 -2.53333,0.73333 -5.06667,1.86666 l -3.26666,-6.73333 q 2.93333,-1.53333 6.46666,-2.4 3.6,-0.86667 7.46667,-0.86667 z m 5.26667,20.26667 -3.86667,0.13333 q -4.8,0.13334 -6.66667,1.73334 -1.86666,1.6 -1.86666,4.2 0,2.26666 1.33333,3.26666 1.33333,0.93334 3.46667,0.93334 3.2,0 5.4,-1.86667 2.2,-1.93333 2.2,-5.4 z"
             style="font-style:normal;font-variant:normal;font-weight:bold;font-stretch:normal;font-size:66.66666412px;line-height:1;font-family:'Noto Sans';-inkscape-font-specification:'Noto Sans Bold';fill:#393939;fill-opacity:1"
             id="path974" />
          <path
             inkscape:connector-curvature="0"
             d="m 362.75163,227.48924 q 6.2,0 9.33333,3.2 3.2,3.13333 3.2,10.13333 v 23.73334 h -9.93333 v -21.26667 q 0,-7.86667 -5.46667,-7.86667 -3.93333,0 -5.6,2.8 -1.66666,2.8 -1.66666,8.06667 v 18.26667 h -9.93334 v -21.26667 q 0,-7.86667 -5.46666,-7.86667 -4.13334,0 -5.73334,3.13334 -1.53333,3.06666 -1.53333,8.86666 v 17.13334 h -9.93333 v -36.4 h 7.6 l 1.33333,4.66666 h 0.53333 q 1.66667,-2.8 4.53334,-4.06666 2.93333,-1.26667 6.06666,-1.26667 4,0 6.8,1.33333 2.8,1.26667 4.26667,4 h 0.86667 q 1.66666,-2.8 4.6,-4.06666 3,-1.26667 6.13333,-1.26667 z"
             style="font-style:normal;font-variant:normal;font-weight:bold;font-stretch:normal;font-size:66.66666412px;line-height:1;font-family:'Noto Sans';-inkscape-font-specification:'Noto Sans Bold';fill:#393939;fill-opacity:1"
             id="path976" />
          <path
             inkscape:connector-curvature="0"
             d="m 400.48487,227.48924 q 7.53333,0 11.93333,4.33333 4.4,4.26667 4.4,12.2 v 4.8 h -23.46667 q 0.13334,4.2 2.46667,6.6 2.4,2.4 6.6,2.4 3.53333,0 6.4,-0.66666 2.86667,-0.73334 5.93333,-2.2 v 7.66666 q -2.66666,1.33334 -5.66666,1.93334 -2.93334,0.66666 -7.13334,0.66666 -5.46666,0 -9.66666,-2 -4.2,-2.06666 -6.6,-6.2 -2.4,-4.13333 -2.4,-10.4 0,-6.4 2.13333,-10.6 2.2,-4.26666 6.06667,-6.4 3.86666,-2.13333 9,-2.13333 z m 0.0667,7.06667 q -2.86666,0 -4.8,1.86666 -1.86666,1.86667 -2.2,5.8 h 13.93334 q -0.0667,-3.33333 -1.73334,-5.46666 -1.66666,-2.2 -5.2,-2.2 z"
             style="font-style:normal;font-variant:normal;font-weight:bold;font-stretch:normal;font-size:66.66666412px;line-height:1;font-family:'Noto Sans';-inkscape-font-specification:'Noto Sans Bold';fill:#393939;fill-opacity:1"
             id="path978" />
        </g>
      </g>
    </g>
  </g>
</svg>
